<?xml version="1.0" encoding="utf-8"?>
<!-- Generator: Adobe Illustrator 15.1.0, SVG Export Plug-In  -->
<!DOCTYPE svg PUBLIC "-//W3C//DTD SVG 1.1//EN" "http://www.w3.org/Graphics/SVG/1.1/DTD/svg11.dtd" [
	<!ENTITY ns_flows "http://ns.adobe.com/Flows/1.0/">
]>
<svg version="1.1"
	 xmlns="http://www.w3.org/2000/svg" xmlns:xlink="http://www.w3.org/1999/xlink" xmlns:a="http://ns.adobe.com/AdobeSVGViewerExtensions/3.0/"
	 x="0px" y="0px" width="360px" height="360px" viewBox="-114.498 -51.417 360 360"
	 enable-background="new -114.498 -51.417 360 360" xml:space="preserve">
<defs>
</defs>
<line fill="none" stroke="#383838" stroke-width="6" stroke-linecap="round" stroke-miterlimit="10" x1="3" y1="58.001" x2="3" y2="215.281"/>
<line fill="none" stroke="#383838" stroke-width="12" stroke-linecap="round" stroke-miterlimit="10" x1="6" y1="216.281" x2="65.358" y2="251.002"/>
<line fill="none" stroke="#383838" stroke-width="12" stroke-linecap="round" stroke-miterlimit="10" x1="65.358" y1="251.002" x2="124.358" y2="218.002"/>
<line fill="none" stroke="#383838" stroke-width="6" stroke-linecap="round" stroke-miterlimit="10" x1="127.112" y1="215.281" x2="127.112" y2="57.418"/>
<line fill="none" stroke="#383838" stroke-width="6" stroke-linecap="round" stroke-miterlimit="10" x1="65.358" y1="251.002" x2="65.358" y2="85.722"/>
<line fill="none" stroke="#383838" stroke-width="6" stroke-linecap="round" stroke-miterlimit="10" x1="3" y1="58.001" x2="65.358" y2="85.722"/>
<line fill="none" stroke="#383838" stroke-width="6" stroke-linecap="round" stroke-miterlimit="10" x1="65.358" y1="85.722" x2="127.112" y2="56.501"/>
<line fill="none" stroke="#383838" stroke-width="3" stroke-linecap="round" stroke-miterlimit="10" x1="76.108" y1="99.751" x2="76.108" y2="135.502"/>
<line fill="none" stroke="#383838" stroke-width="3" stroke-linecap="round" stroke-miterlimit="10" x1="88.858" y1="94.001" x2="88.858" y2="129.752"/>
<line fill="none" stroke="#383838" stroke-width="3" stroke-linecap="round" stroke-miterlimit="10" x1="93.858" y1="91.251" x2="93.858" y2="127.001"/>
<line fill="none" stroke="#383838" stroke-width="3" stroke-linecap="round" stroke-miterlimit="10" x1="76.108" y1="99.751" x2="82.608" y2="111.876"/>
<line fill="none" stroke="#383838" stroke-width="3" stroke-linecap="round" stroke-miterlimit="10" x1="82.608" y1="111.876" x2="88.858" y2="94.001"/>
<line fill="none" stroke="#383838" stroke-width="3" stroke-linecap="round" stroke-miterlimit="10" x1="99.108" y1="88.251" x2="99.108" y2="124.001"/>
<line fill="none" stroke="#383838" stroke-width="3" stroke-linecap="round" stroke-miterlimit="10" x1="99.108" y1="125.001" x2="104.358" y2="122.126"/>
<line fill="none" stroke="#383838" stroke-width="3" stroke-linecap="round" stroke-miterlimit="10" x1="108.108" y1="84.751" x2="108.108" y2="120.501"/>
<path fill="none" stroke="#383838" stroke-width="3" stroke-linecap="round" stroke-miterlimit="10" d="M108.108,100.751
	c3.418-0.75,4.375-3.083,4.375-4.75V82.126"/>
<path fill="none" stroke="#383838" stroke-width="3" stroke-linecap="round" stroke-miterlimit="10" d="M108.108,102.938
	c3.75-0.271,6.375,0.313,6.375,3.188v11"/>
<line fill="none" stroke="#383838" stroke-width="6" stroke-linecap="round" stroke-miterlimit="10" x1="35.679" y1="43.022" x2="96.235" y2="16.526"/>
<line fill="none" stroke="#383838" stroke-width="6" stroke-linecap="round" stroke-miterlimit="10" x1="3" y1="58.001" x2="35.679" y2="43.022"/>
<line fill="none" stroke="#383838" stroke-width="6" stroke-linecap="round" stroke-miterlimit="10" x1="35.679" y1="43.022" x2="65.358" y2="85.722"/>
<line fill="none" stroke="#383838" stroke-width="6" stroke-linecap="round" stroke-miterlimit="10" x1="35.679" y1="43.022" x2="35.679" y2="30.765"/>
<line fill="none" stroke="#383838" stroke-width="6" stroke-linecap="round" stroke-miterlimit="10" x1="35.679" y1="30.765" x2="96.235" y2="5.001"/>
<line fill="none" stroke="#383838" stroke-width="6" stroke-linecap="round" stroke-miterlimit="10" x1="96.235" y1="16.526" x2="96.235" y2="5.001"/>
<line fill="none" stroke="#383838" stroke-width="6" stroke-linecap="round" stroke-miterlimit="10" x1="127.112" y1="56.501" x2="96.235" y2="16.526"/>
<polygon fill="none" stroke="#383838" stroke-width="0.5" stroke-linecap="round" stroke-miterlimit="10" points="50.206,159.002 
	18.858,144.742 18.858,80.465 50.206,94.724 "/>
<line fill="none" stroke="#383838" stroke-width="0.5" stroke-linecap="round" stroke-miterlimit="10" x1="18.858" y1="152.09" x2="49.358" y2="166.131"/>
<line fill="none" stroke="#383838" stroke-width="0.5" stroke-linecap="round" stroke-miterlimit="10" x1="18.858" y1="176.283" x2="49.358" y2="190.322"/>
<line fill="none" stroke="#383838" stroke-width="0.5" stroke-linecap="round" stroke-miterlimit="10" x1="18.858" y1="169.617" x2="49.358" y2="183.658"/>
<line fill="none" stroke="#383838" stroke-width="0.5" stroke-linecap="round" stroke-miterlimit="10" x1="18.858" y1="163.336" x2="49.358" y2="177.375"/>
<line fill="none" stroke="#383838" stroke-width="0.5" stroke-linecap="round" stroke-miterlimit="10" x1="18.858" y1="157.713" x2="49.358" y2="171.752"/>
<line fill="none" stroke="#FFFFFF" stroke-width="6" stroke-linecap="round" stroke-miterlimit="10" x1="5.253" y1="56" x2="5.253" y2="213.28"/>
<line fill="none" stroke="#FFFFFF" stroke-width="12" stroke-linecap="round" stroke-miterlimit="10" x1="8.253" y1="214.28" x2="67.612" y2="249"/>
<line fill="none" stroke="#FFFFFF" stroke-width="12" stroke-linecap="round" stroke-miterlimit="10" x1="67.612" y1="249" x2="126.612" y2="216"/>
<line fill="none" stroke="#FFFFFF" stroke-width="6" stroke-linecap="round" stroke-miterlimit="10" x1="129.364" y1="213.28" x2="129.364" y2="55.417"/>
<line fill="none" stroke="#FFFFFF" stroke-width="6" stroke-linecap="round" stroke-miterlimit="10" x1="67.612" y1="249" x2="67.612" y2="83.72"/>
<line fill="none" stroke="#FFFFFF" stroke-width="6" stroke-linecap="round" stroke-miterlimit="10" x1="5.253" y1="56" x2="67.612" y2="83.72"/>
<line fill="none" stroke="#FFFFFF" stroke-width="6" stroke-linecap="round" stroke-miterlimit="10" x1="67.612" y1="83.72" x2="129.364" y2="54.5"/>
<line fill="none" stroke="#FFFFFF" stroke-width="3" stroke-linecap="round" stroke-miterlimit="10" x1="78.362" y1="97.75" x2="78.362" y2="133.5"/>
<line fill="none" stroke="#FFFFFF" stroke-width="3" stroke-linecap="round" stroke-miterlimit="10" x1="91.112" y1="92" x2="91.112" y2="127.75"/>
<line fill="none" stroke="#FFFFFF" stroke-width="3" stroke-linecap="round" stroke-miterlimit="10" x1="96.112" y1="89.25" x2="96.112" y2="125"/>
<line fill="none" stroke="#FFFFFF" stroke-width="3" stroke-linecap="round" stroke-miterlimit="10" x1="78.362" y1="97.75" x2="84.862" y2="109.875"/>
<line fill="none" stroke="#FFFFFF" stroke-width="3" stroke-linecap="round" stroke-miterlimit="10" x1="84.862" y1="109.875" x2="91.112" y2="92"/>
<line fill="none" stroke="#FFFFFF" stroke-width="3" stroke-linecap="round" stroke-miterlimit="10" x1="101.362" y1="86.25" x2="101.362" y2="122"/>
<line fill="none" stroke="#FFFFFF" stroke-width="3" stroke-linecap="round" stroke-miterlimit="10" x1="101.362" y1="123" x2="106.612" y2="120.125"/>
<line fill="none" stroke="#FFFFFF" stroke-width="3" stroke-linecap="round" stroke-miterlimit="10" x1="110.362" y1="82.75" x2="110.362" y2="118.5"/>
<path fill="none" stroke="#FFFFFF" stroke-width="3" stroke-linecap="round" stroke-miterlimit="10" d="M110.362,98.75
	c3.416-0.75,4.375-3.083,4.375-4.75V80.125"/>
<path fill="none" stroke="#FFFFFF" stroke-width="3" stroke-linecap="round" stroke-miterlimit="10" d="M110.362,100.938
	c3.75-0.271,6.375,0.313,6.375,3.188v11"/>
<line fill="none" stroke="#FFFFFF" stroke-width="6" stroke-linecap="round" stroke-miterlimit="10" x1="37.932" y1="41.021" x2="98.489" y2="14.524"/>
<line fill="none" stroke="#FFFFFF" stroke-width="6" stroke-linecap="round" stroke-miterlimit="10" x1="5.253" y1="56" x2="37.932" y2="41.021"/>
<line fill="none" stroke="#FFFFFF" stroke-width="6" stroke-linecap="round" stroke-miterlimit="10" x1="37.932" y1="41.021" x2="67.612" y2="83.72"/>
<line fill="none" stroke="#FFFFFF" stroke-width="6" stroke-linecap="round" stroke-miterlimit="10" x1="37.932" y1="41.021" x2="37.932" y2="28.764"/>
<line fill="none" stroke="#FFFFFF" stroke-width="6" stroke-linecap="round" stroke-miterlimit="10" x1="37.932" y1="28.764" x2="98.489" y2="3"/>
<line fill="none" stroke="#FFFFFF" stroke-width="6" stroke-linecap="round" stroke-miterlimit="10" x1="98.489" y1="14.524" x2="98.489" y2="3"/>
<line fill="none" stroke="#FFFFFF" stroke-width="6" stroke-linecap="round" stroke-miterlimit="10" x1="129.364" y1="54.5" x2="98.489" y2="14.524"/>
<polygon fill="none" stroke="#FFFFFF" stroke-width="0.5" stroke-linecap="round" stroke-miterlimit="10" points="52.459,157 
	21.111,142.74 21.111,78.464 52.459,92.723 "/>
<line fill="none" stroke="#FFFFFF" stroke-width="0.5" stroke-linecap="round" stroke-miterlimit="10" x1="21.111" y1="150.089" x2="51.611" y2="164.129"/>
<line fill="none" stroke="#FFFFFF" stroke-width="0.5" stroke-linecap="round" stroke-miterlimit="10" x1="21.111" y1="174.281" x2="51.611" y2="188.321"/>
<line fill="none" stroke="#FFFFFF" stroke-width="0.5" stroke-linecap="round" stroke-miterlimit="10" x1="21.111" y1="167.616" x2="51.611" y2="181.656"/>
<line fill="none" stroke="#FFFFFF" stroke-width="0.5" stroke-linecap="round" stroke-miterlimit="10" x1="21.111" y1="161.334" x2="51.611" y2="175.374"/>
<line fill="none" stroke="#FFFFFF" stroke-width="0.5" stroke-linecap="round" stroke-miterlimit="10" x1="21.111" y1="155.711" x2="51.611" y2="169.751"/>
</svg>
