<?xml version="1.0" encoding="utf-8"?>
<!-- Generator: Adobe Illustrator 15.1.0, SVG Export Plug-In  -->
<!DOCTYPE svg PUBLIC "-//W3C//DTD SVG 1.1//EN" "http://www.w3.org/Graphics/SVG/1.1/DTD/svg11.dtd" [
	<!ENTITY ns_flows "http://ns.adobe.com/Flows/1.0/">
]>
<svg version="1.1"
	 xmlns="http://www.w3.org/2000/svg" xmlns:xlink="http://www.w3.org/1999/xlink" xmlns:a="http://ns.adobe.com/AdobeSVGViewerExtensions/3.0/"
	 x="0px" y="0px" width="360px" height="360px" viewBox="-58.125 -87 360 360" enable-background="new -58.125 -87 360 360"
	 xml:space="preserve">
<defs>
</defs>
<line fill="none" stroke="#494949" stroke-width="12" stroke-linecap="round" stroke-miterlimit="10" x1="32.125" y1="8.416" x2="209.625" y2="8.416"/>
<line fill="none" stroke="#494949" stroke-width="12" stroke-linecap="round" stroke-miterlimit="10" x1="6" y1="68.416" x2="235.75" y2="68.416"/>
<line fill="none" stroke="#494949" stroke-width="12" stroke-linecap="round" stroke-miterlimit="10" x1="6" y1="68.416" x2="32.125" y2="8.416"/>
<line fill="none" stroke="#494949" stroke-width="12" stroke-linecap="round" stroke-miterlimit="10" x1="209.625" y1="8.416" x2="235.75" y2="68.416"/>
<line fill="none" stroke="#494949" stroke-width="2" stroke-linecap="round" stroke-miterlimit="10" x1="120.125" y1="21.083" x2="120.125" y2="55.75"/>
<line fill="none" stroke="#494949" stroke-width="2" stroke-linecap="round" stroke-miterlimit="10" x1="90.958" y1="21.083" x2="86.625" y2="55.75"/>
<line fill="none" stroke="#494949" stroke-width="2" stroke-linecap="round" stroke-miterlimit="10" x1="60.292" y1="20.75" x2="49.625" y2="55.416"/>
<line fill="none" stroke="#494949" stroke-width="2" stroke-linecap="round" stroke-miterlimit="10" x1="151.292" y1="20.916" x2="155.626" y2="55.582"/>
<line fill="none" stroke="#494949" stroke-width="2" stroke-linecap="round" stroke-miterlimit="10" x1="181.959" y1="20.583" x2="192.626" y2="55.25"/>
<rect x="19.063" y="67.083" fill="none" stroke="#494949" stroke-width="12" stroke-linecap="round" stroke-miterlimit="10" width="203.625" height="111.667"/>
<rect x="42.125" y="79.916" fill="none" stroke="#494949" stroke-width="2" stroke-linecap="round" stroke-miterlimit="10" width="156" height="32.834"/>
<rect x="120.125" y="121.416" fill="none" stroke="#494949" stroke-width="2" stroke-linecap="round" stroke-miterlimit="10" width="31.167" height="57.334"/>
<rect x="88.792" y="121.416" fill="none" stroke="#494949" stroke-width="2" stroke-linecap="round" stroke-miterlimit="10" width="31.167" height="57.334"/>
<rect x="92.958" y="125.75" fill="none" stroke="#494949" stroke-width="2" stroke-linecap="round" stroke-miterlimit="10" width="22.667" height="22.045"/>
<rect x="124.375" y="125.75" fill="none" stroke="#494949" stroke-width="2" stroke-linecap="round" stroke-miterlimit="10" width="22.666" height="22.045"/>
<line fill="none" stroke="#494949" stroke-width="2" stroke-linecap="round" stroke-miterlimit="10" x1="115.625" y1="152.416" x2="115.625" y2="162.083"/>
<line fill="none" stroke="#494949" stroke-width="2" stroke-linecap="round" stroke-miterlimit="10" x1="124.375" y1="152.416" x2="124.375" y2="162.083"/>
<line fill="none" stroke="#494949" stroke-width="2" stroke-linecap="round" stroke-miterlimit="10" x1="37.5" y1="148.291" x2="75.875" y2="148.291"/>
<line fill="none" stroke="#494949" stroke-width="2" stroke-linecap="round" stroke-miterlimit="10" x1="31.5" y1="163.041" x2="81.875" y2="163.041"/>
<rect x="31.5" y="163.041" fill="none" stroke="#494949" stroke-width="2" stroke-linecap="round" stroke-miterlimit="10" width="50.375" height="17.959"/>
<line fill="none" stroke="#494949" stroke-width="2" stroke-linecap="round" stroke-miterlimit="10" x1="31.5" y1="163.041" x2="37.5" y2="148.291"/>
<line fill="none" stroke="#494949" stroke-width="2" stroke-linecap="round" stroke-miterlimit="10" x1="75.875" y1="148.291" x2="81.875" y2="163.041"/>
<ellipse fill="none" stroke="#494949" stroke-linecap="round" stroke-miterlimit="10" cx="37.5" cy="160.258" rx="1.938" ry="2.25"/>
<ellipse fill="none" stroke="#494949" stroke-linecap="round" stroke-miterlimit="10" cx="41.375" cy="160.258" rx="1.938" ry="2.25"/>
<ellipse fill="none" stroke="#494949" stroke-linecap="round" stroke-miterlimit="10" cx="45.25" cy="160.258" rx="1.938" ry="2.25"/>
<ellipse fill="none" stroke="#494949" stroke-linecap="round" stroke-miterlimit="10" cx="49.125" cy="160.258" rx="1.938" ry="2.25"/>
<ellipse fill="none" stroke="#494949" stroke-linecap="round" stroke-miterlimit="10" cx="53" cy="160.258" rx="1.938" ry="2.25"/>
<ellipse fill="none" stroke="#494949" stroke-linecap="round" stroke-miterlimit="10" cx="56.875" cy="160.258" rx="1.938" ry="2.25"/>
<ellipse fill="none" stroke="#494949" stroke-linecap="round" stroke-miterlimit="10" cx="60.688" cy="160.258" rx="1.938" ry="2.25"/>
<ellipse fill="none" stroke="#494949" stroke-linecap="round" stroke-miterlimit="10" cx="64.563" cy="160.258" rx="1.938" ry="2.25"/>
<ellipse fill="none" stroke="#494949" stroke-linecap="round" stroke-miterlimit="10" cx="68.438" cy="160.258" rx="1.938" ry="2.25"/>
<ellipse fill="none" stroke="#494949" stroke-linecap="round" stroke-miterlimit="10" cx="72.313" cy="160.258" rx="1.938" ry="2.25"/>
<ellipse fill="none" stroke="#494949" stroke-linecap="round" stroke-miterlimit="10" cx="76.188" cy="160.258" rx="1.938" ry="2.25"/>
<ellipse fill="none" stroke="#494949" stroke-linecap="round" stroke-miterlimit="10" cx="39.406" cy="155.666" rx="1.938" ry="2.25"/>
<ellipse fill="none" stroke="#494949" stroke-linecap="round" stroke-miterlimit="10" cx="43.281" cy="155.666" rx="1.938" ry="2.25"/>
<ellipse fill="none" stroke="#494949" stroke-linecap="round" stroke-miterlimit="10" cx="47.156" cy="155.666" rx="1.938" ry="2.25"/>
<ellipse fill="none" stroke="#494949" stroke-linecap="round" stroke-miterlimit="10" cx="51.031" cy="155.666" rx="1.938" ry="2.25"/>
<ellipse fill="none" stroke="#494949" stroke-linecap="round" stroke-miterlimit="10" cx="54.906" cy="155.666" rx="1.938" ry="2.25"/>
<ellipse fill="none" stroke="#494949" stroke-linecap="round" stroke-miterlimit="10" cx="58.781" cy="155.666" rx="1.938" ry="2.25"/>
<ellipse fill="none" stroke="#494949" stroke-linecap="round" stroke-miterlimit="10" cx="62.594" cy="155.666" rx="1.938" ry="2.25"/>
<ellipse fill="none" stroke="#494949" stroke-linecap="round" stroke-miterlimit="10" cx="66.469" cy="155.666" rx="1.938" ry="2.25"/>
<ellipse fill="none" stroke="#494949" stroke-linecap="round" stroke-miterlimit="10" cx="70.344" cy="155.666" rx="1.938" ry="2.25"/>
<ellipse fill="none" stroke="#494949" stroke-linecap="round" stroke-miterlimit="10" cx="74.219" cy="155.666" rx="1.938" ry="2.25"/>
<ellipse fill="none" stroke="#494949" stroke-linecap="round" stroke-miterlimit="10" cx="41.375" cy="151.166" rx="1.938" ry="2.25"/>
<ellipse fill="none" stroke="#494949" stroke-linecap="round" stroke-miterlimit="10" cx="45.25" cy="151.166" rx="1.938" ry="2.25"/>
<ellipse fill="none" stroke="#494949" stroke-linecap="round" stroke-miterlimit="10" cx="49.125" cy="151.166" rx="1.938" ry="2.25"/>
<ellipse fill="none" stroke="#494949" stroke-linecap="round" stroke-miterlimit="10" cx="53" cy="151.166" rx="1.938" ry="2.25"/>
<ellipse fill="none" stroke="#494949" stroke-linecap="round" stroke-miterlimit="10" cx="56.875" cy="151.166" rx="1.938" ry="2.25"/>
<ellipse fill="none" stroke="#494949" stroke-linecap="round" stroke-miterlimit="10" cx="60.75" cy="151.166" rx="1.938" ry="2.25"/>
<ellipse fill="none" stroke="#494949" stroke-linecap="round" stroke-miterlimit="10" cx="64.563" cy="151.166" rx="1.938" ry="2.25"/>
<ellipse fill="none" stroke="#494949" stroke-linecap="round" stroke-miterlimit="10" cx="68.438" cy="151.166" rx="1.938" ry="2.25"/>
<ellipse fill="none" stroke="#494949" stroke-linecap="round" stroke-miterlimit="10" cx="72.313" cy="151.166" rx="1.938" ry="2.25"/>
<line fill="none" stroke="#494949" stroke-width="2" stroke-linecap="round" stroke-miterlimit="10" x1="165.75" y1="147.795" x2="204.125" y2="147.795"/>
<line fill="none" stroke="#494949" stroke-width="2" stroke-linecap="round" stroke-miterlimit="10" x1="159.75" y1="162.545" x2="210.125" y2="162.545"/>
<rect x="159.75" y="162.545" fill="none" stroke="#494949" stroke-width="2" stroke-linecap="round" stroke-miterlimit="10" width="50.375" height="17.959"/>
<line fill="none" stroke="#494949" stroke-width="2" stroke-linecap="round" stroke-miterlimit="10" x1="159.75" y1="162.545" x2="165.75" y2="147.795"/>
<line fill="none" stroke="#494949" stroke-width="2" stroke-linecap="round" stroke-miterlimit="10" x1="204.125" y1="147.795" x2="210.125" y2="162.545"/>
<ellipse fill="none" stroke="#494949" stroke-linecap="round" stroke-miterlimit="10" cx="165.75" cy="159.762" rx="1.938" ry="2.25"/>
<ellipse fill="none" stroke="#494949" stroke-linecap="round" stroke-miterlimit="10" cx="169.625" cy="159.762" rx="1.938" ry="2.25"/>
<ellipse fill="none" stroke="#494949" stroke-linecap="round" stroke-miterlimit="10" cx="173.5" cy="159.762" rx="1.938" ry="2.25"/>
<ellipse fill="none" stroke="#494949" stroke-linecap="round" stroke-miterlimit="10" cx="177.375" cy="159.762" rx="1.938" ry="2.25"/>
<ellipse fill="none" stroke="#494949" stroke-linecap="round" stroke-miterlimit="10" cx="181.25" cy="159.762" rx="1.938" ry="2.25"/>
<ellipse fill="none" stroke="#494949" stroke-linecap="round" stroke-miterlimit="10" cx="185.125" cy="159.762" rx="1.938" ry="2.25"/>
<ellipse fill="none" stroke="#494949" stroke-linecap="round" stroke-miterlimit="10" cx="188.938" cy="159.762" rx="1.938" ry="2.25"/>
<ellipse fill="none" stroke="#494949" stroke-linecap="round" stroke-miterlimit="10" cx="192.813" cy="159.762" rx="1.938" ry="2.25"/>
<ellipse fill="none" stroke="#494949" stroke-linecap="round" stroke-miterlimit="10" cx="196.688" cy="159.762" rx="1.938" ry="2.25"/>
<ellipse fill="none" stroke="#494949" stroke-linecap="round" stroke-miterlimit="10" cx="200.563" cy="159.762" rx="1.938" ry="2.25"/>
<ellipse fill="none" stroke="#494949" stroke-linecap="round" stroke-miterlimit="10" cx="204.438" cy="159.762" rx="1.938" ry="2.25"/>
<ellipse fill="none" stroke="#494949" stroke-linecap="round" stroke-miterlimit="10" cx="167.656" cy="155.17" rx="1.938" ry="2.25"/>
<ellipse fill="none" stroke="#494949" stroke-linecap="round" stroke-miterlimit="10" cx="171.531" cy="155.17" rx="1.938" ry="2.25"/>
<ellipse fill="none" stroke="#494949" stroke-linecap="round" stroke-miterlimit="10" cx="175.406" cy="155.17" rx="1.938" ry="2.25"/>
<ellipse fill="none" stroke="#494949" stroke-linecap="round" stroke-miterlimit="10" cx="179.281" cy="155.17" rx="1.938" ry="2.25"/>
<ellipse fill="none" stroke="#494949" stroke-linecap="round" stroke-miterlimit="10" cx="183.156" cy="155.17" rx="1.938" ry="2.25"/>
<ellipse fill="none" stroke="#494949" stroke-linecap="round" stroke-miterlimit="10" cx="187.031" cy="155.17" rx="1.938" ry="2.25"/>
<ellipse fill="none" stroke="#494949" stroke-linecap="round" stroke-miterlimit="10" cx="190.844" cy="155.17" rx="1.938" ry="2.25"/>
<ellipse fill="none" stroke="#494949" stroke-linecap="round" stroke-miterlimit="10" cx="194.719" cy="155.17" rx="1.938" ry="2.25"/>
<ellipse fill="none" stroke="#494949" stroke-linecap="round" stroke-miterlimit="10" cx="198.594" cy="155.17" rx="1.938" ry="2.25"/>
<ellipse fill="none" stroke="#494949" stroke-linecap="round" stroke-miterlimit="10" cx="202.469" cy="155.17" rx="1.938" ry="2.25"/>
<ellipse fill="none" stroke="#494949" stroke-linecap="round" stroke-miterlimit="10" cx="169.625" cy="150.67" rx="1.938" ry="2.25"/>
<ellipse fill="none" stroke="#494949" stroke-linecap="round" stroke-miterlimit="10" cx="173.5" cy="150.67" rx="1.938" ry="2.25"/>
<ellipse fill="none" stroke="#494949" stroke-linecap="round" stroke-miterlimit="10" cx="177.375" cy="150.67" rx="1.938" ry="2.25"/>
<ellipse fill="none" stroke="#494949" stroke-linecap="round" stroke-miterlimit="10" cx="181.25" cy="150.67" rx="1.938" ry="2.25"/>
<ellipse fill="none" stroke="#494949" stroke-linecap="round" stroke-miterlimit="10" cx="185.125" cy="150.67" rx="1.938" ry="2.25"/>
<ellipse fill="none" stroke="#494949" stroke-linecap="round" stroke-miterlimit="10" cx="189" cy="150.67" rx="1.938" ry="2.25"/>
<ellipse fill="none" stroke="#494949" stroke-linecap="round" stroke-miterlimit="10" cx="192.813" cy="150.67" rx="1.938" ry="2.25"/>
<ellipse fill="none" stroke="#494949" stroke-linecap="round" stroke-miterlimit="10" cx="196.688" cy="150.67" rx="1.938" ry="2.25"/>
<ellipse fill="none" stroke="#494949" stroke-linecap="round" stroke-miterlimit="10" cx="200.563" cy="150.67" rx="1.938" ry="2.25"/>
<line fill="none" stroke="#FFFFFF" stroke-width="12" stroke-linecap="round" stroke-miterlimit="10" x1="34.375" y1="6" x2="211.875" y2="6"/>
<line fill="none" stroke="#FFFFFF" stroke-width="12" stroke-linecap="round" stroke-miterlimit="10" x1="8.25" y1="66" x2="238" y2="66"/>
<line fill="none" stroke="#FFFFFF" stroke-width="12" stroke-linecap="round" stroke-miterlimit="10" x1="8.25" y1="66" x2="34.375" y2="6"/>
<line fill="none" stroke="#FFFFFF" stroke-width="12" stroke-linecap="round" stroke-miterlimit="10" x1="211.875" y1="6" x2="238" y2="66"/>
<line fill="none" stroke="#FFFFFF" stroke-width="2" stroke-linecap="round" stroke-miterlimit="10" x1="122.375" y1="18.667" x2="122.375" y2="53.334"/>
<line fill="none" stroke="#FFFFFF" stroke-width="2" stroke-linecap="round" stroke-miterlimit="10" x1="93.208" y1="18.667" x2="88.875" y2="53.334"/>
<line fill="none" stroke="#FFFFFF" stroke-width="2" stroke-linecap="round" stroke-miterlimit="10" x1="62.542" y1="18.334" x2="51.875" y2="53"/>
<line fill="none" stroke="#FFFFFF" stroke-width="2" stroke-linecap="round" stroke-miterlimit="10" x1="153.542" y1="18.5" x2="157.876" y2="53.166"/>
<line fill="none" stroke="#FFFFFF" stroke-width="2" stroke-linecap="round" stroke-miterlimit="10" x1="184.209" y1="18.167" x2="194.876" y2="52.834"/>
<rect x="21.313" y="64.667" fill="none" stroke="#FFFFFF" stroke-width="12" stroke-linecap="round" stroke-miterlimit="10" width="203.625" height="111.667"/>
<rect x="44.375" y="77.5" fill="none" stroke="#FFFFFF" stroke-width="2" stroke-linecap="round" stroke-miterlimit="10" width="156" height="32.834"/>
<rect x="122.375" y="119" fill="none" stroke="#FFFFFF" stroke-width="2" stroke-linecap="round" stroke-miterlimit="10" width="31.167" height="57.334"/>
<rect x="91.042" y="119" fill="none" stroke="#FFFFFF" stroke-width="2" stroke-linecap="round" stroke-miterlimit="10" width="31.167" height="57.334"/>
<rect x="95.208" y="123.334" fill="none" stroke="#FFFFFF" stroke-width="2" stroke-linecap="round" stroke-miterlimit="10" width="22.667" height="22.045"/>
<rect x="126.625" y="123.334" fill="none" stroke="#FFFFFF" stroke-width="2" stroke-linecap="round" stroke-miterlimit="10" width="22.666" height="22.045"/>
<line fill="none" stroke="#FFFFFF" stroke-width="2" stroke-linecap="round" stroke-miterlimit="10" x1="117.875" y1="150" x2="117.875" y2="159.667"/>
<line fill="none" stroke="#FFFFFF" stroke-width="2" stroke-linecap="round" stroke-miterlimit="10" x1="126.625" y1="150" x2="126.625" y2="159.667"/>
<line fill="none" stroke="#FFFFFF" stroke-width="2" stroke-linecap="round" stroke-miterlimit="10" x1="39.75" y1="145.875" x2="78.125" y2="145.875"/>
<line fill="none" stroke="#FFFFFF" stroke-width="2" stroke-linecap="round" stroke-miterlimit="10" x1="33.75" y1="160.625" x2="84.125" y2="160.625"/>
<rect x="33.75" y="160.625" fill="none" stroke="#FFFFFF" stroke-width="2" stroke-linecap="round" stroke-miterlimit="10" width="50.375" height="17.959"/>
<line fill="none" stroke="#FFFFFF" stroke-width="2" stroke-linecap="round" stroke-miterlimit="10" x1="33.75" y1="160.625" x2="39.75" y2="145.875"/>
<line fill="none" stroke="#FFFFFF" stroke-width="2" stroke-linecap="round" stroke-miterlimit="10" x1="78.125" y1="145.875" x2="84.125" y2="160.625"/>
<ellipse fill="none" stroke="#FFFFFF" stroke-linecap="round" stroke-miterlimit="10" cx="39.75" cy="157.842" rx="1.938" ry="2.25"/>
<ellipse fill="none" stroke="#FFFFFF" stroke-linecap="round" stroke-miterlimit="10" cx="43.625" cy="157.842" rx="1.938" ry="2.25"/>
<ellipse fill="none" stroke="#FFFFFF" stroke-linecap="round" stroke-miterlimit="10" cx="47.5" cy="157.842" rx="1.938" ry="2.25"/>
<ellipse fill="none" stroke="#FFFFFF" stroke-linecap="round" stroke-miterlimit="10" cx="51.375" cy="157.842" rx="1.938" ry="2.25"/>
<ellipse fill="none" stroke="#FFFFFF" stroke-linecap="round" stroke-miterlimit="10" cx="55.25" cy="157.842" rx="1.938" ry="2.25"/>
<ellipse fill="none" stroke="#FFFFFF" stroke-linecap="round" stroke-miterlimit="10" cx="59.125" cy="157.842" rx="1.938" ry="2.25"/>
<ellipse fill="none" stroke="#FFFFFF" stroke-linecap="round" stroke-miterlimit="10" cx="62.938" cy="157.842" rx="1.938" ry="2.25"/>
<ellipse fill="none" stroke="#FFFFFF" stroke-linecap="round" stroke-miterlimit="10" cx="66.813" cy="157.842" rx="1.938" ry="2.25"/>
<ellipse fill="none" stroke="#FFFFFF" stroke-linecap="round" stroke-miterlimit="10" cx="70.688" cy="157.842" rx="1.938" ry="2.25"/>
<ellipse fill="none" stroke="#FFFFFF" stroke-linecap="round" stroke-miterlimit="10" cx="74.563" cy="157.842" rx="1.938" ry="2.25"/>
<ellipse fill="none" stroke="#FFFFFF" stroke-linecap="round" stroke-miterlimit="10" cx="78.438" cy="157.842" rx="1.938" ry="2.25"/>
<ellipse fill="none" stroke="#FFFFFF" stroke-linecap="round" stroke-miterlimit="10" cx="41.656" cy="153.25" rx="1.938" ry="2.25"/>
<ellipse fill="none" stroke="#FFFFFF" stroke-linecap="round" stroke-miterlimit="10" cx="45.531" cy="153.25" rx="1.938" ry="2.25"/>
<ellipse fill="none" stroke="#FFFFFF" stroke-linecap="round" stroke-miterlimit="10" cx="49.406" cy="153.25" rx="1.938" ry="2.25"/>
<ellipse fill="none" stroke="#FFFFFF" stroke-linecap="round" stroke-miterlimit="10" cx="53.281" cy="153.25" rx="1.938" ry="2.25"/>
<ellipse fill="none" stroke="#FFFFFF" stroke-linecap="round" stroke-miterlimit="10" cx="57.156" cy="153.25" rx="1.938" ry="2.25"/>
<ellipse fill="none" stroke="#FFFFFF" stroke-linecap="round" stroke-miterlimit="10" cx="61.031" cy="153.25" rx="1.938" ry="2.25"/>
<ellipse fill="none" stroke="#FFFFFF" stroke-linecap="round" stroke-miterlimit="10" cx="64.844" cy="153.25" rx="1.938" ry="2.25"/>
<ellipse fill="none" stroke="#FFFFFF" stroke-linecap="round" stroke-miterlimit="10" cx="68.719" cy="153.25" rx="1.938" ry="2.25"/>
<ellipse fill="none" stroke="#FFFFFF" stroke-linecap="round" stroke-miterlimit="10" cx="72.594" cy="153.25" rx="1.938" ry="2.25"/>
<ellipse fill="none" stroke="#FFFFFF" stroke-linecap="round" stroke-miterlimit="10" cx="76.469" cy="153.25" rx="1.938" ry="2.25"/>
<ellipse fill="none" stroke="#FFFFFF" stroke-linecap="round" stroke-miterlimit="10" cx="43.625" cy="148.75" rx="1.938" ry="2.25"/>
<ellipse fill="none" stroke="#FFFFFF" stroke-linecap="round" stroke-miterlimit="10" cx="47.5" cy="148.75" rx="1.938" ry="2.25"/>
<ellipse fill="none" stroke="#FFFFFF" stroke-linecap="round" stroke-miterlimit="10" cx="51.375" cy="148.75" rx="1.938" ry="2.25"/>
<ellipse fill="none" stroke="#FFFFFF" stroke-linecap="round" stroke-miterlimit="10" cx="55.25" cy="148.75" rx="1.938" ry="2.25"/>
<ellipse fill="none" stroke="#FFFFFF" stroke-linecap="round" stroke-miterlimit="10" cx="59.125" cy="148.75" rx="1.938" ry="2.25"/>
<ellipse fill="none" stroke="#FFFFFF" stroke-linecap="round" stroke-miterlimit="10" cx="63" cy="148.75" rx="1.938" ry="2.25"/>
<ellipse fill="none" stroke="#FFFFFF" stroke-linecap="round" stroke-miterlimit="10" cx="66.813" cy="148.75" rx="1.938" ry="2.25"/>
<ellipse fill="none" stroke="#FFFFFF" stroke-linecap="round" stroke-miterlimit="10" cx="70.688" cy="148.75" rx="1.938" ry="2.25"/>
<ellipse fill="none" stroke="#FFFFFF" stroke-linecap="round" stroke-miterlimit="10" cx="74.563" cy="148.75" rx="1.938" ry="2.25"/>
<line fill="none" stroke="#FFFFFF" stroke-width="2" stroke-linecap="round" stroke-miterlimit="10" x1="168" y1="145.379" x2="206.375" y2="145.379"/>
<line fill="none" stroke="#FFFFFF" stroke-width="2" stroke-linecap="round" stroke-miterlimit="10" x1="162" y1="160.129" x2="212.375" y2="160.129"/>
<rect x="162" y="160.129" fill="none" stroke="#FFFFFF" stroke-width="2" stroke-linecap="round" stroke-miterlimit="10" width="50.375" height="17.959"/>
<line fill="none" stroke="#FFFFFF" stroke-width="2" stroke-linecap="round" stroke-miterlimit="10" x1="162" y1="160.129" x2="168" y2="145.379"/>
<line fill="none" stroke="#FFFFFF" stroke-width="2" stroke-linecap="round" stroke-miterlimit="10" x1="206.375" y1="145.379" x2="212.375" y2="160.129"/>
<ellipse fill="none" stroke="#FFFFFF" stroke-linecap="round" stroke-miterlimit="10" cx="168" cy="157.346" rx="1.938" ry="2.25"/>
<ellipse fill="none" stroke="#FFFFFF" stroke-linecap="round" stroke-miterlimit="10" cx="171.875" cy="157.346" rx="1.938" ry="2.25"/>
<ellipse fill="none" stroke="#FFFFFF" stroke-linecap="round" stroke-miterlimit="10" cx="175.75" cy="157.346" rx="1.938" ry="2.25"/>
<ellipse fill="none" stroke="#FFFFFF" stroke-linecap="round" stroke-miterlimit="10" cx="179.625" cy="157.346" rx="1.938" ry="2.25"/>
<ellipse fill="none" stroke="#FFFFFF" stroke-linecap="round" stroke-miterlimit="10" cx="183.5" cy="157.346" rx="1.938" ry="2.25"/>
<ellipse fill="none" stroke="#FFFFFF" stroke-linecap="round" stroke-miterlimit="10" cx="187.375" cy="157.346" rx="1.938" ry="2.25"/>
<ellipse fill="none" stroke="#FFFFFF" stroke-linecap="round" stroke-miterlimit="10" cx="191.188" cy="157.346" rx="1.938" ry="2.25"/>
<ellipse fill="none" stroke="#FFFFFF" stroke-linecap="round" stroke-miterlimit="10" cx="195.063" cy="157.346" rx="1.938" ry="2.25"/>
<ellipse fill="none" stroke="#FFFFFF" stroke-linecap="round" stroke-miterlimit="10" cx="198.938" cy="157.346" rx="1.938" ry="2.25"/>
<ellipse fill="none" stroke="#FFFFFF" stroke-linecap="round" stroke-miterlimit="10" cx="202.813" cy="157.346" rx="1.938" ry="2.25"/>
<ellipse fill="none" stroke="#FFFFFF" stroke-linecap="round" stroke-miterlimit="10" cx="206.688" cy="157.346" rx="1.938" ry="2.25"/>
<ellipse fill="none" stroke="#FFFFFF" stroke-linecap="round" stroke-miterlimit="10" cx="169.906" cy="152.754" rx="1.938" ry="2.25"/>
<ellipse fill="none" stroke="#FFFFFF" stroke-linecap="round" stroke-miterlimit="10" cx="173.781" cy="152.754" rx="1.938" ry="2.25"/>
<ellipse fill="none" stroke="#FFFFFF" stroke-linecap="round" stroke-miterlimit="10" cx="177.656" cy="152.754" rx="1.938" ry="2.25"/>
<ellipse fill="none" stroke="#FFFFFF" stroke-linecap="round" stroke-miterlimit="10" cx="181.531" cy="152.754" rx="1.938" ry="2.25"/>
<ellipse fill="none" stroke="#FFFFFF" stroke-linecap="round" stroke-miterlimit="10" cx="185.406" cy="152.754" rx="1.938" ry="2.25"/>
<ellipse fill="none" stroke="#FFFFFF" stroke-linecap="round" stroke-miterlimit="10" cx="189.281" cy="152.754" rx="1.938" ry="2.25"/>
<ellipse fill="none" stroke="#FFFFFF" stroke-linecap="round" stroke-miterlimit="10" cx="193.094" cy="152.754" rx="1.938" ry="2.25"/>
<ellipse fill="none" stroke="#FFFFFF" stroke-linecap="round" stroke-miterlimit="10" cx="196.969" cy="152.754" rx="1.938" ry="2.25"/>
<ellipse fill="none" stroke="#FFFFFF" stroke-linecap="round" stroke-miterlimit="10" cx="200.844" cy="152.754" rx="1.938" ry="2.25"/>
<ellipse fill="none" stroke="#FFFFFF" stroke-linecap="round" stroke-miterlimit="10" cx="204.719" cy="152.754" rx="1.938" ry="2.25"/>
<ellipse fill="none" stroke="#FFFFFF" stroke-linecap="round" stroke-miterlimit="10" cx="171.875" cy="148.254" rx="1.938" ry="2.25"/>
<ellipse fill="none" stroke="#FFFFFF" stroke-linecap="round" stroke-miterlimit="10" cx="175.75" cy="148.254" rx="1.938" ry="2.25"/>
<ellipse fill="none" stroke="#FFFFFF" stroke-linecap="round" stroke-miterlimit="10" cx="179.625" cy="148.254" rx="1.938" ry="2.25"/>
<ellipse fill="none" stroke="#FFFFFF" stroke-linecap="round" stroke-miterlimit="10" cx="183.5" cy="148.254" rx="1.938" ry="2.25"/>
<ellipse fill="none" stroke="#FFFFFF" stroke-linecap="round" stroke-miterlimit="10" cx="187.375" cy="148.254" rx="1.938" ry="2.25"/>
<ellipse fill="none" stroke="#FFFFFF" stroke-linecap="round" stroke-miterlimit="10" cx="191.25" cy="148.254" rx="1.938" ry="2.25"/>
<ellipse fill="none" stroke="#FFFFFF" stroke-linecap="round" stroke-miterlimit="10" cx="195.063" cy="148.254" rx="1.938" ry="2.25"/>
<ellipse fill="none" stroke="#FFFFFF" stroke-linecap="round" stroke-miterlimit="10" cx="198.938" cy="148.254" rx="1.938" ry="2.25"/>
<ellipse fill="none" stroke="#FFFFFF" stroke-linecap="round" stroke-miterlimit="10" cx="202.813" cy="148.254" rx="1.938" ry="2.25"/>
</svg>
